<?xml version="1.0" encoding="utf-8"?>
<!-- Generator: Adobe Illustrator 17.1.0, SVG Export Plug-In . SVG Version: 6.00 Build 0)  -->
<!DOCTYPE svg PUBLIC "-//W3C//DTD SVG 1.1 Basic//EN" "http://www.w3.org/Graphics/SVG/1.1/DTD/svg11-basic.dtd">
<svg version="1.1" baseProfile="basic" id="Calque_1"
	 xmlns="http://www.w3.org/2000/svg" xmlns:xlink="http://www.w3.org/1999/xlink" x="0px" y="0px" viewBox="0 0 316.8 181.6"
	 xml:space="preserve">
<g>
	
		<rect x="72.6" y="147.5" transform="matrix(0.9739 0.2269 -0.2269 0.9739 37.363 -26.5239)" fill="#FFEDBF" width="122.9" height="3.5"/>
</g>
<g>
	
		<rect x="177.2" y="95.2" transform="matrix(0.9739 0.2269 -0.2269 0.9739 28.2244 -51.6224)" fill="#FFEDBF" width="122.9" height="3.5"/>
</g>
<g>
	<polygon fill="#FFFCE7" points="35.8,156.5 19.6,28.9 177.6,28.9 225.3,57.2 	"/>
	<path fill="#D9BD17" d="M31.6,163.7l-18-141.8h165.4l56.8,34.3L31.6,163.7z M25.5,31.9l14.6,115.3l174.6-92l-38.5-23.3H25.5z"/>
</g>
<g>
	<circle fill="#FFFFFF" cx="36.4" cy="36.4" r="32.9"/>
	<path fill="#D9BD17" d="M36.4,72.9C16.3,72.9,0,56.5,0,36.4C0,16.3,16.3,0,36.4,0c20.1,0,36.4,16.3,36.4,36.4
		C72.9,56.5,56.5,72.9,36.4,72.9z M36.4,7C20.2,7,7,20.2,7,36.4s13.2,29.5,29.5,29.5s29.5-13.2,29.5-29.5S52.7,7,36.4,7z"/>
</g>
<g>
	<g>
		<g>
			<circle fill="#716000" cx="17.2" cy="12.7" r="10.5"/>
		</g>
	</g>
</g>
<g>
	
		<rect x="181.7" y="151.2" transform="matrix(0.7071 0.7071 -0.7071 0.7071 171.7097 -89.0167)" fill="#FFFCC6" width="23.2" height="23.2"/>
	<path fill="#D9BD17" d="M193.3,181.6l-18.9-18.9l18.9-18.9l18.9,18.9L193.3,181.6z M179.4,162.8l13.9,13.9l13.9-13.9l-13.9-13.9
		L179.4,162.8z"/>
</g>
<g>
	
		<rect x="286.3" y="98.9" transform="matrix(0.7071 0.7071 -0.7071 0.7071 165.3653 -178.2898)" fill="#FFFCC6" width="23.2" height="23.2"/>
	<path fill="#D9BD17" d="M297.9,129.3L279,110.5l18.9-18.9l18.9,18.9L297.9,129.3z M284,110.5l13.9,13.9l13.9-13.9l-13.9-13.9
		L284,110.5z"/>
</g>
</svg>
