<?xml version="1.0" encoding="utf-8"?>
<!-- Generator: Adobe Illustrator 17.1.0, SVG Export Plug-In . SVG Version: 6.00 Build 0)  -->
<!DOCTYPE svg PUBLIC "-//W3C//DTD SVG 1.1 Basic//EN" "http://www.w3.org/Graphics/SVG/1.1/DTD/svg11-basic.dtd">
<svg version="1.1" baseProfile="basic" id="Calque_1"
	 xmlns="http://www.w3.org/2000/svg" xmlns:xlink="http://www.w3.org/1999/xlink" x="0px" y="0px" viewBox="0 0 311.1 202.5"
	 xml:space="preserve">
<g>
	<circle fill="#FFFFFF" cx="275.2" cy="164.9" r="29"/>
	<path fill="#1C60D7" d="M275.2,197.3c-17.9,0-32.4-14.5-32.4-32.4s14.5-32.4,32.4-32.4c17.9,0,32.4,14.5,32.4,32.4
		S293.1,197.3,275.2,197.3z M275.2,139.3c-14.1,0-25.6,11.5-25.6,25.6c0,14.1,11.5,25.6,25.6,25.6c14.1,0,25.6-11.5,25.6-25.6
		C300.8,150.8,289.4,139.3,275.2,139.3z"/>
</g>
<g>
	<circle fill="#012571" cx="297.4" cy="182" r="10.2"/>
</g>
<g>
	<circle fill="#012571" cx="300.8" cy="151.3" r="10.2"/>
</g>
<g>
	<circle fill="#012571" cx="263.3" cy="192.2" r="10.2"/>
</g>
<g>
	<path fill="#1C60D7" d="M253.1,151.4c-1.6,0-3.1-0.7-4.1-2.1c-0.5-0.6-47.2-62.8-116.4-62.8c-58.2,0-87.3-31.7-110.7-57.2
		C14.9,21.7,8.4,14.6,1.8,9C-0.3,7.2-0.6,4,1.2,1.8C3-0.3,6.3-0.6,8.4,1.2c7.1,6,13.8,13.3,20.9,21.1
		c23.2,25.3,49.5,53.9,103.2,53.9c74.5,0,122.7,64.3,124.7,67c1.7,2.3,1.2,5.5-1.1,7.2C255.2,151,254.1,151.4,253.1,151.4z"/>
</g>
<g>
	<polygon fill="#DBE7FF" points="209.8,129.1 237.2,129.2 223.4,152.9 	"/>
	<path fill="#1C60D7" d="M223.4,156.3l-16.5-28.9l33.3,0.1L223.4,156.3z M212.8,130.8l10.6,18.6l10.8-18.5L212.8,130.8z"/>
</g>
<g>
	<polygon fill="#DBE7FF" points="203,88.1 230.4,88.3 216.6,111.9 	"/>
	<path fill="#1C60D7" d="M216.6,115.3l-16.5-28.9l33.3,0.1L216.6,115.3z M206,89.9l10.6,18.6L227.4,90L206,89.9z"/>
</g>
<g>
	<polygon fill="#DBE7FF" points="158.7,95 186,95.1 172.2,118.7 	"/>
	<path fill="#1C60D7" d="M172.2,122.1l-16.5-28.9l33.3,0.1L172.2,122.1z M161.6,96.7l10.6,18.6l10.8-18.5L161.6,96.7z"/>
</g>
<g>
	<polygon fill="#DBE7FF" points="134.8,57.4 162.1,57.6 148.4,81.2 	"/>
	<path fill="#1C60D7" d="M148.3,84.6l-16.5-28.9l33.3,0.1L148.3,84.6z M137.7,59.2l10.6,18.6l10.8-18.5L137.7,59.2z"/>
</g>
<g>
	<polygon fill="#DBE7FF" points="97.2,81.3 124.6,81.4 110.8,105.1 	"/>
	<path fill="#1C60D7" d="M110.8,108.5L94.3,79.6l33.3,0.1L110.8,108.5z M100.2,83l10.6,18.6l10.8-18.5L100.2,83z"/>
</g>
<g>
	<polygon fill="#DBE7FF" points="73.4,47.2 100.7,47.3 86.9,71 	"/>
	<path fill="#1C60D7" d="M86.9,74.4L70.4,45.5l33.3,0.1L86.9,74.4z M76.3,48.9L87,67.6L97.8,49L76.3,48.9z"/>
</g>
<g>
	<polygon fill="#DBE7FF" points="25.6,50.6 53,50.7 39.2,74.4 	"/>
	<path fill="#1C60D7" d="M39.2,77.8L22.6,48.9L55.9,49L39.2,77.8z M28.5,52.3L39.2,71L50,52.4L28.5,52.3z"/>
</g>
<g>
	<polygon fill="#DBE7FF" points="22.2,9.7 49.5,9.8 35.8,33.4 	"/>
	<path fill="#1C60D7" d="M35.7,36.8L19.2,7.9l33.3,0.1L35.7,36.8z M25.1,11.4L35.8,30l10.8-18.5L25.1,11.4z"/>
</g>
</svg>
