<?xml version="1.0" encoding="utf-8"?>
<!-- Generator: Adobe Illustrator 17.1.0, SVG Export Plug-In . SVG Version: 6.00 Build 0)  -->
<!DOCTYPE svg PUBLIC "-//W3C//DTD SVG 1.1 Basic//EN" "http://www.w3.org/Graphics/SVG/1.1/DTD/svg11-basic.dtd">
<svg version="1.1" baseProfile="basic" id="Calque_1"
	 xmlns="http://www.w3.org/2000/svg" xmlns:xlink="http://www.w3.org/1999/xlink" x="0px" y="0px" viewBox="0 0 240.1 267.3"
	 xml:space="preserve">
<g>
	<rect x="118.7" y="130.8" fill="#C2FF96" width="4" height="116"/>
</g>
<g>
	<rect x="118.7" y="21.8" fill="#C2FF96" width="4" height="109"/>
</g>
<g>
	
		<rect x="12.4" y="101.7" transform="matrix(0.8944 0.4472 -0.4472 0.8944 53.6423 -20.3484)" fill="#C2FF96" width="115" height="3.4"/>
</g>
<g>
	
		<rect x="68.2" y="100" transform="matrix(0.5139 0.8578 -0.8578 0.5139 171.2397 17.7925)" fill="#C2FF96" width="3.4" height="119.9"/>
</g>
<g>
	<polygon fill="#C2FF96" points="218.1,192.3 120.4,130.6 122.2,127.7 219.9,189.4 	"/>
</g>
<g>
	<polygon fill="#C2FF96" points="122.2,130.6 120.5,127.7 218.2,71.1 219.9,74.1 	"/>
</g>
<g>
	<g>
		<g>
			
				<rect x="109.8" y="11.1" transform="matrix(1.171796e-02 0.9999 -0.9999 1.171796e-02 131.7769 -91.9501)" fill="#63D113" width="5.1" height="19.1"/>
		</g>
		<g>
			
				<rect x="109.2" y="8" transform="matrix(0.2373 0.9714 -0.9714 0.2373 101.4366 -108.0148)" fill="#63D113" width="20.6" height="5.1"/>
		</g>
		<g>
			
				<rect x="128.7" y="2.9" transform="matrix(0.5613 0.8276 -0.8276 0.5613 69.3822 -102.4281)" fill="#63D113" width="5.1" height="22.6"/>
		</g>
		<g>
			<polygon fill="#63D113" points="139.7,34.7 120.6,22.7 123.3,18.4 142.4,30.4 			"/>
		</g>
		<g>
			
				<rect x="117.3" y="20.4" transform="matrix(0.9779 0.209 -0.209 0.9779 9.034 -24.3654)" fill="#63D113" width="5.1" height="20.4"/>
		</g>
	</g>
	<g>
		<g>
			
				<rect x="7" y="67.7" transform="matrix(1.171796e-02 0.9999 -0.9999 1.171796e-02 86.7043 66.7697)" fill="#63D113" width="5.1" height="19.1"/>
		</g>
		<g>
			
				<rect x="6.4" y="64.6" transform="matrix(0.2374 0.9714 -0.9714 0.2374 77.9523 35.0119)" fill="#63D113" width="20.6" height="5.1"/>
		</g>
		<g>
			
				<rect x="25.9" y="59.5" transform="matrix(0.5613 0.8276 -0.8276 0.5613 71.0769 7.489)" fill="#63D113" width="5.1" height="22.6"/>
		</g>
		<g>
			<polygon fill="#63D113" points="36.8,91.3 17.8,79.3 20.5,75 39.6,87 			"/>
		</g>
		<g>
			
				<rect x="14.4" y="76.9" transform="matrix(0.9779 0.209 -0.209 0.9779 18.5833 -1.625)" fill="#63D113" width="5.1" height="20.4"/>
		</g>
	</g>
	<g>
		<g>
			
				<rect x="7" y="180.8" transform="matrix(1.171796e-02 0.9999 -0.9999 1.171796e-02 199.8115 178.5592)" fill="#63D113" width="5.1" height="19.1"/>
		</g>
		<g>
			
				<rect x="6.4" y="177.7" transform="matrix(0.2373 0.9714 -0.9714 0.2373 187.8359 121.2812)" fill="#63D113" width="20.6" height="5.1"/>
		</g>
		<g>
			
				<rect x="25.9" y="172.6" transform="matrix(0.5613 0.8276 -0.8276 0.5613 164.6935 57.1136)" fill="#63D113" width="5.1" height="22.6"/>
		</g>
		<g>
			<polygon fill="#63D113" points="36.8,204.4 17.8,192.4 20.5,188.1 39.6,200.1 			"/>
		</g>
		<g>
			
				<rect x="14.4" y="190" transform="matrix(0.9779 0.209 -0.209 0.9779 42.224 0.8729)" fill="#63D113" width="5.1" height="20.4"/>
		</g>
	</g>
	<g>
		<g>
			
				<rect x="109.8" y="237.4" transform="matrix(1.171796e-02 0.9999 -0.9999 1.171796e-02 357.9914 131.629)" fill="#63D113" width="5.1" height="19.1"/>
		</g>
		<g>
			
				<rect x="109.2" y="234.3" transform="matrix(0.2374 0.9714 -0.9714 0.2374 321.2 64.5184)" fill="#63D113" width="20.6" height="5.1"/>
		</g>
		<g>
			
				<rect x="128.7" y="229.2" transform="matrix(0.5613 0.8276 -0.8276 0.5613 256.6138 -3.1797)" fill="#63D113" width="5.1" height="22.6"/>
		</g>
		<g>
			<polygon fill="#63D113" points="139.7,261 120.6,249 123.3,244.6 142.4,256.6 			"/>
		</g>
		<g>
			
				<rect x="117.3" y="246.6" transform="matrix(0.9779 0.209 -0.209 0.9779 56.315 -19.3695)" fill="#63D113" width="5.1" height="20.4"/>
		</g>
	</g>
	<g>
		<g>
			
				<rect x="207.5" y="180.8" transform="matrix(1.171796e-02 0.9999 -0.9999 1.171796e-02 397.9856 -21.9508)" fill="#63D113" width="5.1" height="19.1"/>
		</g>
		<g>
			
				<rect x="206.9" y="177.7" transform="matrix(0.2375 0.9714 -0.9714 0.2375 340.7259 -73.5307)" fill="#63D113" width="20.6" height="5.1"/>
		</g>
		<g>
			
				<rect x="226.4" y="172.6" transform="matrix(0.5613 0.8276 -0.8276 0.5613 252.6636 -108.8418)" fill="#63D113" width="5.1" height="22.6"/>
		</g>
		<g>
			<polygon fill="#63D113" points="237.4,204.4 218.3,192.4 221,188.1 240.1,200.1 			"/>
		</g>
		<g>
			
				<rect x="214.9" y="190" transform="matrix(0.9778 0.2096 -0.2096 0.9778 46.8058 -41.144)" fill="#63D113" width="5.1" height="20.4"/>
		</g>
	</g>
	<g>
		<g>
			
				<rect x="207.5" y="62.6" transform="matrix(1.171796e-02 0.9999 -0.9999 1.171796e-02 279.7366 -138.8221)" fill="#63D113" width="5.1" height="19.1"/>
		</g>
		<g>
			
				<rect x="206.9" y="59.4" transform="matrix(0.2375 0.9714 -0.9714 0.2375 225.8487 -163.702)" fill="#63D113" width="20.6" height="5.1"/>
		</g>
		<g>
			
				<rect x="226.4" y="54.3" transform="matrix(0.5613 0.8276 -0.8276 0.5613 154.7921 -160.7218)" fill="#63D113" width="5.1" height="22.6"/>
		</g>
		<g>
			<polygon fill="#63D113" points="237.4,86.2 218.3,74.2 221,69.8 240.1,81.8 			"/>
		</g>
		<g>
			
				<rect x="214.9" y="71.8" transform="matrix(0.9778 0.2096 -0.2096 0.9778 22.017 -43.7713)" fill="#63D113" width="5.1" height="20.4"/>
		</g>
	</g>
</g>
<g>
	<circle fill="#C2FF96" cx="121.8" cy="129" r="53.5"/>
	<path fill="#63D113" d="M121.8,185.9c-31.4,0-56.9-25.5-56.9-56.9S90.4,72,121.8,72c31.4,0,56.9,25.5,56.9,56.9
		S153.2,185.9,121.8,185.9z M121.8,78.9c-27.6,0-50.1,22.5-50.1,50.1s22.5,50.1,50.1,50.1c27.6,0,50.1-22.5,50.1-50.1
		S149.4,78.9,121.8,78.9z"/>
</g>
<g>
	<circle fill="#FFFFFF" cx="121.8" cy="129" r="30.7"/>
	<path fill="#63D113" d="M121.8,163.1c-18.8,0-34.2-15.3-34.2-34.2s15.3-34.2,34.2-34.2S156,110.1,156,129S140.6,163.1,121.8,163.1z
		 M121.8,101.6c-15.1,0-27.3,12.3-27.3,27.3s12.3,27.3,27.3,27.3s27.3-12.3,27.3-27.3S136.9,101.6,121.8,101.6z"/>
</g>
<g>
	<g>
		<circle fill="#2B6600" cx="146.3" cy="146" r="10.2"/>
	</g>
</g>
<g>
	<g>
		<circle fill="#2B6600" cx="149.7" cy="115.3" r="10.2"/>
	</g>
</g>
<g>
	<g>
		<circle fill="#2B6600" cx="115.6" cy="159.7" r="10.2"/>
	</g>
</g>
<g>
	<g>
		<circle fill="#2B6600" cx="125.8" cy="159.7" r="10.2"/>
	</g>
</g>
<g>
	<g>
		<circle fill="#2B6600" cx="136" cy="156.3" r="10.2"/>
	</g>
</g>
<g>
	<g>
		<circle fill="#2B6600" cx="149.7" cy="132.4" r="10.2"/>
	</g>
</g>
<g>
	<g>
		<circle fill="#2B6600" cx="101.9" cy="105.1" r="10.2"/>
	</g>
</g>
</svg>
