<?xml version="1.0" standalone="no"?>
<!DOCTYPE svg PUBLIC "-//W3C//DTD SVG 20010904//EN"
 "http://www.w3.org/TR/2001/REC-SVG-20010904/DTD/svg10.dtd">
<svg version="1.0" xmlns="http://www.w3.org/2000/svg"
 width="700.000000pt" height="700.000000pt" viewBox="0 0 700.000000 700.000000"
 preserveAspectRatio="xMidYMid meet">
<metadata>
Created by potrace 1.11, written by Peter Selinger 2001-2013
</metadata>
<g transform="translate(0.000000,700.000000) scale(0.100000,-0.100000)"
fill="#000000" stroke="none">
<path d="M2389 6426 c-2 -3 -16 -7 -29 -10 -14 -3 -74 -16 -135 -30 -60 -15
-121 -28 -135 -31 -14 -3 -50 -11 -80 -18 l-55 -12 -58 -190 c-32 -105 -60
-197 -62 -205 -22 -83 -60 -200 -65 -200 -6 0 -54 41 -110 93 -14 13 -59 52
-100 87 -41 35 -79 69 -85 74 -5 6 -41 38 -80 71 -38 33 -110 96 -159 139
l-90 79 -162 -167 c-108 -111 -161 -172 -158 -184 7 -30 36 -176 40 -202 3
-14 11 -60 20 -103 8 -42 17 -90 20 -105 2 -15 7 -38 10 -52 3 -14 8 -36 10
-50 2 -14 9 -47 14 -74 l10 -48 -47 -42 c-39 -33 -125 -111 -199 -181 -57 -53
-204 -188 -224 -205 -44 -38 -150 -142 -150 -147 0 -3 24 -39 53 -81 30 -43
116 -169 192 -282 76 -113 171 -252 210 -310 39 -58 111 -163 160 -235 48 -71
91 -134 95 -138 4 -5 30 -1 56 9 93 32 150 52 322 113 95 33 177 63 182 66 4
3 11 17 14 32 6 24 104 330 225 703 l38 115 49 -1 c49 -1 205 -13 234 -19 8
-2 49 -6 90 -9 41 -4 89 -9 105 -11 17 -2 68 -6 115 -10 47 -4 92 -8 100 -10
8 -2 49 -6 90 -10 41 -3 92 -8 113 -11 35 -5 40 -2 93 53 56 58 331 346 411
431 24 24 40 49 36 56 -4 6 -38 55 -77 109 -39 54 -78 108 -86 121 -8 12 -55
78 -105 146 -49 69 -101 141 -115 161 -116 167 -524 729 -530 729 -4 0 -9 -2
-11 -4z"/>
<path d="M5458 5155 c-2 -2 -36 -5 -76 -6 -274 -9 -584 -142 -798 -342 -70
-65 -184 -197 -184 -212 0 -4 -11 -21 -24 -38 -53 -72 -121 -243 -152 -382
-24 -107 -25 -338 -1 -451 51 -243 151 -429 327 -604 112 -113 195 -174 328
-240 202 -101 373 -141 607 -141 110 0 160 6 314 37 38 8 182 60 241 88 208
98 397 263 519 455 117 181 182 398 183 606 1 169 -22 295 -81 450 -160 415
-603 738 -1056 771 -44 3 -94 7 -112 8 -18 2 -33 2 -35 1z"/>
<path d="M1425 3348 c4 -24 9 -52 11 -63 4 -26 91 -550 98 -590 2 -16 8 -50
11 -75 4 -25 9 -52 10 -60 1 -8 6 -35 10 -60 4 -25 9 -54 11 -65 2 -11 6 -36
9 -55 3 -19 7 -47 10 -62 5 -24 2 -28 -17 -29 -13 0 -32 -2 -43 -4 -11 -3 -46
-7 -78 -10 -32 -4 -66 -8 -75 -10 -9 -1 -44 -6 -77 -9 -33 -4 -69 -9 -80 -10
-11 -2 -53 -7 -92 -11 -40 -4 -73 -11 -73 -14 0 -8 1 -9 135 -121 50 -41 92
-77 95 -80 3 -3 40 -35 83 -70 l78 -65 -69 -65 c-74 -70 -295 -277 -352 -330
-19 -18 -89 -83 -155 -145 -66 -62 -142 -133 -169 -158 l-49 -45 29 -6 c16 -3
85 -15 154 -26 158 -26 149 -25 251 -44 47 -9 99 -18 115 -20 16 -2 72 -11
124 -20 52 -10 107 -19 123 -22 15 -2 39 -6 55 -8 40 -7 154 -27 177 -31 11
-2 23 -4 27 -4 7 -1 7 -1 -27 -179 -14 -69 -25 -129 -25 -133 0 -6 80 29 322
139 26 12 52 22 58 22 5 0 28 -37 49 -82 21 -46 78 -164 126 -263 48 -99 118
-244 156 -322 l68 -143 158 0 158 0 73 143 c40 78 134 262 209 408 l135 267
82 -38 c44 -21 104 -47 131 -60 28 -12 77 -34 110 -50 33 -15 61 -27 63 -25 2
2 -6 45 -33 180 -14 64 -11 88 10 91 22 4 81 11 165 20 30 3 66 7 80 9 14 2
50 7 80 10 30 3 66 8 80 10 22 3 68 9 180 20 14 1 68 8 120 14 178 22 275 33
297 34 19 1 25 -6 -404 426 -216 217 -393 397 -393 400 1 4 26 26 56 51 31 25
68 55 82 68 15 12 84 71 154 129 70 59 125 110 123 113 -3 4 -37 11 -77 16
-40 4 -80 8 -88 9 -38 5 -134 17 -154 20 -11 2 -48 7 -81 10 -99 12 -107 13
-112 19 -4 4 58 364 103 601 5 27 22 122 29 165 4 19 15 82 26 138 11 57 19
110 17 116 -2 8 -188 -79 -503 -234 -571 -282 -499 -264 -568 -138 -21 37 -60
106 -88 154 l-51 86 -84 -147 c-46 -81 -84 -150 -84 -154 0 -4 -5 -12 -11 -18
-13 -13 -35 -5 -109 37 -25 15 -76 44 -115 65 -70 38 -301 165 -385 212 -25
14 -74 41 -110 61 -36 20 -112 62 -169 94 -58 32 -109 58 -114 58 -5 0 -6 -18
-2 -42z"/>
</g>
</svg>
