<?xml version="1.0" standalone="no"?>
<!DOCTYPE svg PUBLIC "-//W3C//DTD SVG 20010904//EN"
 "http://www.w3.org/TR/2001/REC-SVG-20010904/DTD/svg10.dtd">
<svg version="1.0" xmlns="http://www.w3.org/2000/svg"
 width="144.000000pt" height="144.000000pt" viewBox="0 0 144.000000 144.000000"
 preserveAspectRatio="xMidYMid meet">
<metadata>
Created by potrace 1.11, written by Peter Selinger 2001-2013
</metadata>
<g transform="translate(0.000000,144.000000) scale(0.100000,-0.100000)"
fill="#000000" stroke="none">
<path d="M433 1309 c-29 -8 -34 -16 -50 -71 l-18 -61 -65 57 -65 56 -34 -34
-34 -34 15 -66 15 -67 -58 -52 c-32 -28 -61 -57 -63 -63 -3 -7 28 -59 67 -116
l72 -105 57 19 57 19 28 87 29 87 34 -1 c19 0 62 -4 96 -7 l60 -7 53 54 c36
37 51 58 45 68 -4 7 -46 66 -92 131 -87 120 -90 123 -149 106z"/>
<path d="M1040 1045 c-171 -55 -230 -274 -107 -399 159 -162 442 -64 453 158
4 90 -52 183 -139 227 -50 26 -149 33 -207 14z"/>
<path d="M294 673 c3 -10 7 -34 10 -53 4 -19 8 -48 11 -65 2 -16 7 -42 11 -57
5 -25 3 -28 -20 -29 -14 -1 -30 -3 -36 -4 -5 -1 -20 -3 -32 -4 -21 -1 -20 -4
15 -34 20 -18 37 -36 37 -40 0 -3 -34 -39 -76 -79 l-76 -73 34 -6 c18 -4 66
-12 107 -19 l73 -12 -5 -34 -6 -34 39 20 39 20 42 -85 c39 -80 43 -85 73 -85
29 0 34 6 76 84 l44 85 39 -21 40 -20 -5 30 -4 30 103 13 c57 6 103 14 103 17
0 3 -36 41 -80 84 l-80 79 42 39 43 39 -53 7 c-58 7 -56 2 -37 94 10 51 17
120 12 120 -3 0 -48 -22 -101 -49 l-96 -48 -22 35 c-19 32 -23 34 -32 18 -31
-51 -26 -51 -124 3 -100 55 -116 60 -108 34z"/>
</g>
</svg>
