<?xml version="1.0" encoding="UTF-8" standalone="no"?>
<svg width="110px" height="110px" version="1.1" xmlns="http://www.w3.org/2000/svg" xmlns:xlink="http://www.w3.org/1999/xlink" xmlns:sketch="http://www.bohemiancoding.com/sketch/ns">
    <title>favicon</title>
    <description>Created with Sketch (http://www.bohemiancoding.com/sketch)</description>
    <defs></defs>
    <g id="Page 1" fill="rgb(223,223,223)" fill-rule="evenodd">
        <path d="M86,65 C95.941126,65 104,57.3888412 104,48 C104,38.6111588 95.941126,31 86,31 C76.058874,31 68,38.6111588 68,48 C68,57.3888412 76.058874,65 86,65 Z M86,65" id="Oval 1" stroke="rgb(251,166,22)" stroke-width="4" fill="rgb(254,255,255)"></path>
        <path d="M86.5,59 C91.1944206,59 95,54.970563 95,50 C95,45.029437 91.1944206,41 86.5,41 C81.8055794,41 78,45.029437 78,50 C78,54.970563 81.8055794,59 86.5,59 Z M86.5,59" id="Oval 2" stroke="rgb(251,166,22)" stroke-width="5" fill="rgb(254,255,255)"></path>
        <path d="M14.300447,29.4606999 L7.09088266,36.100476 L17.0121734,50.7289146 L23.9682401,48.2730114 L30.1452088,29.097896 L20.5774192,23.9279407 L14.300447,29.4606999 Z M14.300447,29.4606999" id="Path 4" stroke="rgb(56,146,227)" stroke-width="3" fill="rgb(254,255,255)"></path>
        <path d="M29.0451688,21.3557542 L31.8894582,11.897271 L37.2152331,10.6809477 L50.2622188,28.8723064 L43.6224427,35.8283731 L28.8126022,34.3562266 L29.0451688,21.3557542 Z M29.0451688,21.3557542" id="Path 3" stroke="rgb(56,146,227)" stroke-width="3" fill="rgb(254,255,255)"></path>
        <path d="M18.0703514,13.4926778 L14.5562702,17.1393219 L18.0703514,35.2818416 L35.2058578,28.4606635 L18.0703514,13.4926778 Z M18.0703514,13.4926778" id="Path 2" stroke="rgb(56,146,227)" stroke-width="3" fill="rgb(254,255,255)"></path>
        <path d="M40.9999995,91.5 L28.0687255,97.3713235 L30.5383785,84.9356618 L20.0767565,76.1286775 L34.5343643,74.3143373 L41.0000003,63 L47.4656402,74.31434 L61.9232469,76.1286866 L51.4616206,84.9356642 L53.9312741,97.3713238 L40.9999995,91.5 Z M40.9999995,91.5" id="Star 1" stroke="rgb(214,30,19)" stroke-width="3" fill="rgb(254,255,255)"></path>
        <path d="M40.9999994,97.2070026 L23.9516036,105.987414 L27.2075567,87.3902058 L13.4151128,74.2195901 L32.4758039,71.5062915 L41.0000003,54.5859948 L49.524202,71.5062957 L68.5848917,74.2196037 L54.7924422,87.3902093 L58.0483958,105.987414 L40.9999994,97.2070026 Z M40.9999994,97.2070026" id="Star 1 copy" stroke="rgb(214,30,19)" stroke-width="3" fill="rgb(254,255,255)" transform="translate(41, 83) rotate(-323) translate(-41, -83)"></path>
    </g>
</svg>