<?xml version="1.0" encoding="utf-8"?>
<!-- Generator: Adobe Illustrator 19.2.1, SVG Export Plug-In . SVG Version: 6.00 Build 0)  -->
<svg version="1.1" id="Calque_1" xmlns="http://www.w3.org/2000/svg" xmlns:xlink="http://www.w3.org/1999/xlink" x="0px" y="0px"
	 viewBox="0 0 240.1 267.3" style="enable-background:new 0 0 240.1 267.3;" xml:space="preserve">
<style type="text/css">
	.st0{fill:#E1E1E1;}
	.st1{fill:#9B9B9B;}
	.st2{fill:#FFFFFF;}
	.st3{fill:#494949;}
</style>
<g>
	<rect x="118.7" y="130.8" class="st0" width="4" height="116"/>
</g>
<g>
	<rect x="118.7" y="21.8" class="st0" width="4" height="109"/>
</g>
<g>
	
		<rect x="68.2" y="45.9" transform="matrix(0.4472 -0.8944 0.8944 0.4472 -53.8254 119.6923)" class="st0" width="3.4" height="115"/>
</g>
<g>
	
		<rect x="10" y="158.3" transform="matrix(0.8578 -0.5139 0.5139 0.8578 -72.2572 58.6912)" class="st0" width="119.9" height="3.4"/>
</g>
<g>
	<polygon class="st0" points="218.1,192.3 120.4,130.6 122.2,127.7 219.9,189.4 	"/>
</g>
<g>
	<polygon class="st0" points="122.2,130.6 120.5,127.7 218.2,71.1 219.9,74.1 	"/>
</g>
<g>
	<g>
		<g>
			
				<rect x="102.9" y="18.1" transform="matrix(0.9999 -1.171833e-02 1.171833e-02 0.9999 -0.234 1.3191)" class="st1" width="19.1" height="5.1"/>
		</g>
		<g>
			<rect x="117" y="0.3" transform="matrix(0.9714 -0.2373 0.2373 0.9714 0.9063 28.6712)" class="st1" width="5.1" height="20.6"/>
		</g>
		<g>
			
				<rect x="120" y="11.6" transform="matrix(0.8276 -0.5613 0.5613 0.8276 14.6843 76.1419)" class="st1" width="22.6" height="5.1"/>
		</g>
		<g>
			<polygon class="st1" points="139.7,34.7 120.6,22.7 123.3,18.4 142.4,30.4 			"/>
		</g>
		<g>
			
				<rect x="109.6" y="28.1" transform="matrix(0.209 -0.9779 0.9779 0.209 64.862 141.4033)" class="st1" width="20.4" height="5.1"/>
		</g>
	</g>
	<g>
		<g>
			
				<rect x="0" y="74.7" transform="matrix(0.9999 -1.171833e-02 1.171833e-02 0.9999 -0.9043 0.1175)" class="st1" width="19.1" height="5.1"/>
		</g>
		<g>
			
				<rect x="14.1" y="56.9" transform="matrix(0.9714 -0.2374 0.2374 0.9714 -15.4706 5.8821)" class="st1" width="5.1" height="20.6"/>
		</g>
		<g>
			
				<rect x="17.2" y="68.2" transform="matrix(0.8276 -0.5613 0.5613 0.8276 -34.8211 28.171)" class="st1" width="22.6" height="5.1"/>
		</g>
		<g>
			<polygon class="st1" points="36.8,91.3 17.8,79.3 20.5,75 39.6,87 			"/>
		</g>
		<g>
			<rect x="6.8" y="84.5" transform="matrix(0.209 -0.9779 0.9779 0.209 -71.758 85.4703)" class="st1" width="20.4" height="5.1"/>
		</g>
	</g>
	<g>
		<g>
			
				<rect x="0" y="187.8" transform="matrix(0.9999 -1.171833e-02 1.171833e-02 0.9999 -2.2298 0.1255)" class="st1" width="19.1" height="5.1"/>
		</g>
		<g>
			
				<rect x="14.2" y="170" transform="matrix(0.9714 -0.2373 0.2373 0.9714 -42.3041 9.1137)" class="st1" width="5.1" height="20.6"/>
		</g>
		<g>
			
				<rect x="17.2" y="181.3" transform="matrix(0.8276 -0.5613 0.5613 0.8276 -98.3065 47.6783)" class="st1" width="22.6" height="5.1"/>
		</g>
		<g>
			<polygon class="st1" points="36.8,204.4 17.8,192.4 20.5,188.1 39.6,200.1 			"/>
		</g>
		<g>
			
				<rect x="6.8" y="197.6" transform="matrix(0.209 -0.9779 0.9779 0.209 -182.3564 174.9335)" class="st1" width="20.4" height="5.1"/>
		</g>
	</g>
	<g>
		<g>
			
				<rect x="102.8" y="244.3" transform="matrix(0.9999 -1.171833e-02 1.171833e-02 0.9999 -2.8851 1.3339)" class="st1" width="19.1" height="5.1"/>
		</g>
		<g>
			
				<rect x="116.9" y="226.5" transform="matrix(0.9714 -0.2374 0.2374 0.9714 -52.8077 35.1386)" class="st1" width="5.1" height="20.6"/>
		</g>
		<g>
			
				<rect x="119.9" y="237.9" transform="matrix(0.8276 -0.5613 0.5613 0.8276 -112.332 115.1185)" class="st1" width="22.6" height="5.1"/>
		</g>
		<g>
			<polygon class="st1" points="139.7,261 120.6,249 123.3,244.6 142.4,256.6 			"/>
		</g>
		<g>
			
				<rect x="109.6" y="254.3" transform="matrix(0.209 -0.9779 0.9779 0.209 -156.3352 320.3294)" class="st1" width="20.4" height="5.1"/>
		</g>
	</g>
	<g>
		<g>
			
				<rect x="200.6" y="187.8" transform="matrix(0.9999 -1.171833e-02 1.171833e-02 0.9999 -2.2157 2.4753)" class="st1" width="19.1" height="5.1"/>
		</g>
		<g>
			
				<rect x="214.7" y="170" transform="matrix(0.9714 -0.2375 0.2375 0.9714 -36.5979 56.7459)" class="st1" width="5.1" height="20.6"/>
		</g>
		<g>
			
				<rect x="217.7" y="181.3" transform="matrix(0.8276 -0.5613 0.5613 0.8276 -63.728 160.2224)" class="st1" width="22.6" height="5.1"/>
		</g>
		<g>
			<polygon class="st1" points="237.4,204.4 218.3,192.4 221,188.1 240.1,200.1 			"/>
		</g>
		<g>
			
				<rect x="207.3" y="197.6" transform="matrix(0.2096 -0.9778 0.9778 0.2096 -23.8563 370.866)" class="st1" width="20.4" height="5.1"/>
		</g>
	</g>
	<g>
		<g>
			
				<rect x="200.5" y="69.5" transform="matrix(0.9999 -1.171833e-02 1.171833e-02 0.9999 -0.8299 2.4664)" class="st1" width="19.1" height="5.1"/>
		</g>
		<g>
			
				<rect x="214.7" y="51.7" transform="matrix(0.9714 -0.2375 0.2375 0.9714 -8.5086 53.3715)" class="st1" width="5.1" height="20.6"/>
		</g>
		<g>
			<rect x="217.7" y="63" transform="matrix(0.8276 -0.5613 0.5613 0.8276 2.67 139.8505)" class="st1" width="22.6" height="5.1"/>
		</g>
		<g>
			<polygon class="st1" points="237.4,86.2 218.3,74.2 221,69.8 240.1,81.8 			"/>
		</g>
		<g>
			
				<rect x="207.3" y="79.4" transform="matrix(0.2096 -0.9778 0.9778 0.2096 91.7102 277.4241)" class="st1" width="20.4" height="5.1"/>
		</g>
	</g>
</g>
<g>
	<circle class="st0" cx="121.8" cy="129" r="53.5"/>
	<path class="st1" d="M121.8,185.9c-31.4,0-56.9-25.5-56.9-56.9s25.5-57,56.9-57s56.9,25.5,56.9,56.9S153.2,185.9,121.8,185.9z
		 M121.8,78.9c-27.6,0-50.1,22.5-50.1,50.1s22.5,50.1,50.1,50.1s50.1-22.5,50.1-50.1S149.4,78.9,121.8,78.9z"/>
</g>
<g>
	<circle class="st2" cx="121.8" cy="129" r="30.7"/>
	<path class="st1" d="M121.8,163.1c-18.8,0-34.2-15.3-34.2-34.2s15.3-34.2,34.2-34.2S156,110.1,156,129S140.6,163.1,121.8,163.1z
		 M121.8,101.6c-15.1,0-27.3,12.3-27.3,27.3s12.3,27.3,27.3,27.3s27.3-12.3,27.3-27.3S136.9,101.6,121.8,101.6z"/>
</g>
<g>
	<g>
		<circle class="st3" cx="146.3" cy="146" r="10.2"/>
	</g>
</g>
<g>
	<g>
		<circle class="st3" cx="149.7" cy="115.3" r="10.2"/>
	</g>
</g>
<g>
	<g>
		<circle class="st3" cx="115.6" cy="159.7" r="10.2"/>
	</g>
</g>
<g>
	<g>
		<circle class="st3" cx="125.8" cy="159.7" r="10.2"/>
	</g>
</g>
<g>
	<g>
		<circle class="st3" cx="136" cy="156.3" r="10.2"/>
	</g>
</g>
<g>
	<g>
		<circle class="st3" cx="149.7" cy="132.4" r="10.2"/>
	</g>
</g>
<g>
	<g>
		<circle class="st3" cx="101.9" cy="105.1" r="10.2"/>
	</g>
</g>
</svg>
