<?xml version="1.0" encoding="utf-8"?>
<!-- Generator: Adobe Illustrator 19.2.1, SVG Export Plug-In . SVG Version: 6.00 Build 0)  -->
<svg version="1.1" id="Calque_1" xmlns="http://www.w3.org/2000/svg" xmlns:xlink="http://www.w3.org/1999/xlink" x="0px" y="0px"
	 viewBox="0 0 316.8 181.6" style="enable-background:new 0 0 316.8 181.6;" xml:space="preserve">
<style type="text/css">
	.st0{fill:#EDEDED;}
	.st1{fill:#FBFBFB;}
	.st2{fill:#B3B3B3;}
	.st3{fill:#FFFFFF;}
	.st4{fill:#5B5B5B;}
	.st5{fill:#F7F7F7;}
</style>
<g>
	
		<rect x="132.3" y="87.8" transform="matrix(0.2269 -0.9739 0.9739 0.2269 -41.7207 245.935)" class="st0" width="3.5" height="122.9"/>
</g>
<g>
	
		<rect x="236.9" y="35.5" transform="matrix(0.2269 -0.9739 0.9739 0.2269 90.0794 307.3723)" class="st0" width="3.5" height="122.9"/>
</g>
<g>
	<polygon class="st1" points="35.8,156.5 19.6,28.9 177.6,28.9 225.3,57.2 	"/>
	<path class="st2" d="M31.6,163.7l-18-141.8H179l56.8,34.3L31.6,163.7z M25.5,31.9l14.6,115.3l174.6-92l-38.5-23.3
		C176.2,31.9,25.5,31.9,25.5,31.9z"/>
</g>
<g>
	<circle class="st3" cx="36.4" cy="36.4" r="32.9"/>
	<path class="st2" d="M36.4,72.9C16.3,72.9,0,56.5,0,36.4S16.3,0,36.4,0s36.4,16.3,36.4,36.4C72.9,56.5,56.5,72.9,36.4,72.9z
		 M36.4,7C20.2,7,7,20.2,7,36.4s13.2,29.5,29.5,29.5S66,52.7,66,36.4S52.7,7,36.4,7z"/>
</g>
<g>
	<g>
		<g>
			<circle class="st4" cx="17.2" cy="12.7" r="10.5"/>
		</g>
	</g>
</g>
<g>
	
		<rect x="181.7" y="151.2" transform="matrix(0.7071 -0.7071 0.7071 0.7071 -58.4947 184.3446)" class="st5" width="23.2" height="23.2"/>
	<path class="st2" d="M193.3,181.6l-18.9-18.9l18.9-18.9l18.9,18.9L193.3,181.6z M179.4,162.8l13.9,13.9l13.9-13.9l-13.9-13.9
		L179.4,162.8z"/>
</g>
<g>
	
		<rect x="286.3" y="98.9" transform="matrix(0.7071 -0.7071 0.7071 0.7071 9.1177 242.9917)" class="st5" width="23.2" height="23.2"/>
	<path class="st2" d="M297.9,129.3L279,110.5l18.9-18.9l18.9,18.9L297.9,129.3z M284,110.5l13.9,13.9l13.9-13.9l-13.9-13.9
		L284,110.5z"/>
</g>
</svg>
