<?xml version="1.0" encoding="utf-8"?>
<!-- Generator: Adobe Illustrator 17.1.0, SVG Export Plug-In . SVG Version: 6.00 Build 0)  -->
<!DOCTYPE svg PUBLIC "-//W3C//DTD SVG 1.1 Basic//EN" "http://www.w3.org/Graphics/SVG/1.1/DTD/svg11-basic.dtd">
<svg version="1.1" baseProfile="basic" id="Calque_1"
	 xmlns="http://www.w3.org/2000/svg" xmlns:xlink="http://www.w3.org/1999/xlink" x="0px" y="0px" viewBox="0 0 276.1 319.9"
	 xml:space="preserve">
<g>
	
		<rect x="70.1" y="71" transform="matrix(0.6841 0.7294 -0.7294 0.6841 99.7832 -84.0607)" fill="#F7E7FF" width="153.7" height="4.3"/>
</g>
<g>
	
		<rect x="27.2" y="135.4" transform="matrix(0.6841 0.7294 -0.7294 0.6841 133.1782 -32.4267)" fill="#F7E7FF" width="153.7" height="4.3"/>
</g>
<g>
	
		<rect x="-10.1" y="189" transform="matrix(0.594 0.8045 -0.8045 0.594 181.2337 23.2853)" fill="#F7E7FF" width="155.3" height="4.3"/>
</g>
<g>
	
		<rect x="213.1" y="131.7" transform="matrix(0.8386 0.5447 -0.5447 0.8386 161.8951 -80.8775)" fill="#9F19D7" width="8.6" height="202.1"/>
</g>
<g>
	
		<rect x="153.1" y="93.1" transform="matrix(0.8386 0.5447 -0.5447 0.8386 131.1582 -54.3825)" fill="#9F19D7" width="8.6" height="202.1"/>
</g>
<g>
	<circle fill="#FFFFFF" cx="188.8" cy="210.2" r="36.5"/>
	<path fill="#9F19D7" d="M188.8,251c-22.5,0-40.8-18.3-40.8-40.8s18.3-40.8,40.8-40.8s40.8,18.3,40.8,40.8S211.3,251,188.8,251z
		 M188.8,178.1c-17.7,0-32.2,14.4-32.2,32.2s14.4,32.2,32.2,32.2S221,228,221,210.2S206.5,178.1,188.8,178.1z"/>
</g>
<g>
	<circle fill="#F7E7FF" cx="17.1" cy="128.7" r="15"/>
	<path fill="#9F19D7" d="M17.1,145.8c-9.4,0-17.1-7.7-17.1-17.1s7.7-17.1,17.1-17.1s17.1,7.7,17.1,17.1S26.6,145.8,17.1,145.8z
		 M17.1,115.9c-7.1,0-12.8,5.8-12.8,12.8s5.8,12.8,12.8,12.8S30,135.8,30,128.7S24.2,115.9,17.1,115.9z"/>
</g>
<g>
	<circle fill="#F7E7FF" cx="51.5" cy="81.5" r="15"/>
	<path fill="#9F19D7" d="M51.5,98.6c-9.4,0-17.1-7.7-17.1-17.1S42,64.4,51.5,64.4s17.1,7.7,17.1,17.1S60.9,98.6,51.5,98.6z
		 M51.5,68.7c-7.1,0-12.8,5.8-12.8,12.8c0,7.1,5.8,12.8,12.8,12.8s12.8-5.8,12.8-12.8C64.3,74.4,58.5,68.7,51.5,68.7z"/>
</g>
<g>
	<circle fill="#F7E7FF" cx="94.4" cy="17.1" r="15"/>
	<path fill="#9F19D7" d="M94.4,34.2c-9.4,0-17.1-7.7-17.1-17.1S84.9,0,94.4,0s17.1,7.7,17.1,17.1S103.8,34.2,94.4,34.2z M94.4,4.3
		c-7.1,0-12.8,5.8-12.8,12.8S87.3,30,94.4,30c7.1,0,12.8-5.8,12.8-12.8S101.4,4.3,94.4,4.3z"/>
</g>
<g>
	<g>
		<circle fill="#012571" cx="199.5" cy="245.6" r="12.9"/>
	</g>
</g>
<g>
	<g>
		<circle fill="#012571" cx="225.3" cy="211.3" r="12.9"/>
	</g>
</g>
</svg>
